<svg xmlns="http://www.w3.org/2000/svg" viewBox="0 0 480 360" fill="none">
  <defs><linearGradient id="cg" x1="0" y1="0" x2="1" y2="1"><stop offset="0" stop-color="#eaf3ff"/><stop offset="1" stop-color="#e7fff4"/></linearGradient></defs>
  <rect width="480" height="360" rx="20" fill="url(#cg)"/>
  <g fill="#0d3c94">
    <rect x="70" y="150" width="50" height="150" rx="6"/>
    <rect x="130" y="110" width="55" height="190" rx="6"/>
    <rect x="195" y="170" width="45" height="130" rx="6"/>
    <rect x="250" y="90" width="60" height="210" rx="6"/>
    <rect x="320" y="140" width="50" height="160" rx="6"/>
  </g>
  <g fill="#2bfb97" opacity=".85">
    <rect x="82" y="165" width="10" height="10"/><rect x="100" y="165" width="10" height="10"/>
    <rect x="142" y="128" width="10" height="10"/><rect x="162" y="128" width="10" height="10"/>
    <rect x="264" y="108" width="10" height="10"/><rect x="284" y="108" width="10" height="10"/>
    <rect x="332" y="158" width="10" height="10"/>
  </g>
  <rect x="290" y="215" width="120" height="76" rx="12" fill="#12296b" transform="rotate(-8 350 253)"/>
  <rect x="302" y="248" width="40" height="9" rx="4" fill="#2bfb97" transform="rotate(-8 350 253)"/>
</svg>
